<svg data-v-fde0c5aa="" xmlns="http://www.w3.org/2000/svg" viewBox="0 0 300 300" class="iconAboveSlogan"><!----><defs data-v-fde0c5aa=""><!----></defs><rect data-v-fde0c5aa="" fill="#29A7F1" x="0" y="0" width="300px" height="300px" class="logo-background-square"></rect><defs data-v-fde0c5aa=""><!----></defs><g data-v-fde0c5aa="" id="239fffd6-c853-4a57-8e3f-763b0e4cd0b6" fill="#ffffff" transform="matrix(3.620161530281058,0,0,3.620161530281058,16.452241631275463,149.01457839693006)"><path d="M7.04 13.55L5.26 10.95L3.75 10.95L3.75 13.55L0.98 13.55L0.98 3.75L5.46 3.75L5.46 3.75Q6.79 3.75 7.77 4.19L7.77 4.19L7.77 4.19Q8.75 4.63 9.28 5.45L9.28 5.45L9.28 5.45Q9.81 6.27 9.81 7.38L9.81 7.38L9.81 7.38Q9.81 8.44 9.32 9.23L9.32 9.23L9.32 9.23Q8.82 10.02 7.90 10.47L7.90 10.47L10.01 13.55L7.04 13.55ZM7.01 7.38L7.01 7.38Q7.01 6.69 6.58 6.31L6.58 6.31L6.58 6.31Q6.15 5.94 5.29 5.94L5.29 5.94L3.75 5.94L3.75 8.81L5.29 8.81L5.29 8.81Q6.15 8.81 6.58 8.43L6.58 8.43L6.58 8.43Q7.01 8.06 7.01 7.38L7.01 7.38ZM18.97 9.77L18.97 9.77Q18.97 9.80 18.93 10.43L18.93 10.43L13.41 10.43L13.41 10.43Q13.58 11.02 14.06 11.33L14.06 11.33L14.06 11.33Q14.55 11.65 15.27 11.65L15.27 11.65L15.27 11.65Q15.82 11.65 16.22 11.49L16.22 11.49L16.22 11.49Q16.62 11.34 17.02 10.99L17.02 10.99L18.42 12.45L18.42 12.45Q17.32 13.68 15.19 13.68L15.19 13.68L15.19 13.68Q13.86 13.68 12.85 13.17L12.85 13.17L12.85 13.17Q11.84 12.67 11.29 11.77L11.29 11.77L11.29 11.77Q10.74 10.88 10.74 9.74L10.74 9.74L10.74 9.74Q10.74 8.62 11.28 7.73L11.28 7.73L11.28 7.73Q11.82 6.85 12.77 6.34L12.77 6.34L12.77 6.34Q13.72 5.84 14.91 5.84L14.91 5.84L14.91 5.84Q16.04 5.84 16.97 6.31L16.97 6.31L16.97 6.31Q17.89 6.78 18.43 7.66L18.43 7.66L18.43 7.66Q18.97 8.55 18.97 9.77L18.97 9.77ZM14.92 7.73L14.92 7.73Q14.31 7.73 13.89 8.08L13.89 8.08L13.89 8.08Q13.48 8.43 13.37 9.03L13.37 9.03L16.48 9.03L16.48 9.03Q16.37 8.43 15.95 8.08L15.95 8.08L15.95 8.08Q15.54 7.73 14.92 7.73L14.92 7.73ZM30.09 5.84L30.09 5.84Q31.49 5.84 32.32 6.68L32.32 6.68L32.32 6.68Q33.15 7.52 33.15 9.21L33.15 9.21L33.15 13.55L30.49 13.55L30.49 9.65L30.49 9.65Q30.49 8.85 30.19 8.47L30.19 8.47L30.19 8.47Q29.89 8.09 29.34 8.09L29.34 8.09L29.34 8.09Q28.74 8.09 28.38 8.51L28.38 8.51L28.38 8.51Q28.01 8.93 28.01 9.79L28.01 9.79L28.01 13.55L25.35 13.55L25.35 9.65L25.35 9.65Q25.35 8.09 24.21 8.09L24.21 8.09L24.21 8.09Q23.59 8.09 23.23 8.51L23.23 8.51L23.23 8.51Q22.86 8.93 22.86 9.79L22.86 9.79L22.86 13.55L20.20 13.55L20.20 5.96L22.74 5.96L22.74 6.76L22.74 6.76Q23.16 6.30 23.74 6.07L23.74 6.07L23.74 6.07Q24.32 5.84 25.00 5.84L25.00 5.84L25.00 5.84Q25.80 5.84 26.43 6.13L26.43 6.13L26.43 6.13Q27.06 6.43 27.45 7.03L27.45 7.03L27.45 7.03Q27.90 6.45 28.59 6.15L28.59 6.15L28.59 6.15Q29.27 5.84 30.09 5.84L30.09 5.84ZM34.83 13.55L34.83 5.96L37.49 5.96L37.49 13.55L34.83 13.55ZM36.16 5.12L36.16 5.12Q35.43 5.12 34.99 4.72L34.99 4.72L34.99 4.72Q34.54 4.31 34.54 3.71L34.54 3.71L34.54 3.71Q34.54 3.11 34.99 2.70L34.99 2.70L34.99 2.70Q35.43 2.30 36.16 2.30L36.16 2.30L36.16 2.30Q36.89 2.30 37.34 2.68L37.34 2.68L37.34 2.68Q37.79 3.07 37.79 3.67L37.79 3.67L37.79 3.67Q37.79 4.30 37.34 4.71L37.34 4.71L37.34 4.71Q36.89 5.12 36.16 5.12L36.16 5.12ZM44.16 5.84L44.16 5.84Q45.57 5.84 46.43 6.68L46.43 6.68L46.43 6.68Q47.29 7.52 47.29 9.21L47.29 9.21L47.29 13.55L44.63 13.55L44.63 9.65L44.63 9.65Q44.63 8.09 43.39 8.09L43.39 8.09L43.39 8.09Q42.70 8.09 42.29 8.54L42.29 8.54L42.29 8.54Q41.87 8.99 41.87 9.88L41.87 9.88L41.87 13.55L39.21 13.55L39.21 5.96L41.75 5.96L41.75 6.79L41.75 6.79Q42.20 6.33 42.81 6.08L42.81 6.08L42.81 6.08Q43.43 5.84 44.16 5.84L44.16 5.84ZM54.36 3.16L57.02 3.16L57.02 13.55L54.49 13.55L54.49 12.80L54.49 12.80Q53.75 13.68 52.26 13.68L52.26 13.68L52.26 13.68Q51.23 13.68 50.37 13.20L50.37 13.20L50.37 13.20Q49.52 12.71 49.02 11.82L49.02 11.82L49.02 11.82Q48.52 10.92 48.52 9.74L48.52 9.74L48.52 9.74Q48.52 8.57 49.02 7.68L49.02 7.68L49.02 7.68Q49.52 6.79 50.37 6.31L50.37 6.31L50.37 6.31Q51.23 5.84 52.26 5.84L52.26 5.84L52.26 5.84Q53.62 5.84 54.36 6.62L54.36 6.62L54.36 3.16ZM52.82 11.56L52.82 11.56Q53.51 11.56 53.96 11.08L53.96 11.08L53.96 11.08Q54.40 10.60 54.40 9.74L54.40 9.74L54.40 9.74Q54.40 8.90 53.96 8.43L53.96 8.43L53.96 8.43Q53.52 7.95 52.82 7.95L52.82 7.95L52.82 7.95Q52.12 7.95 51.67 8.43L51.67 8.43L51.67 8.43Q51.23 8.90 51.23 9.74L51.23 9.74L51.23 9.74Q51.23 10.60 51.67 11.08L51.67 11.08L51.67 11.08Q52.12 11.56 52.82 11.56L52.82 11.56ZM66.49 9.77L66.49 9.77Q66.49 9.80 66.44 10.43L66.44 10.43L60.93 10.43L60.93 10.43Q61.10 11.02 61.58 11.33L61.58 11.33L61.58 11.33Q62.06 11.65 62.79 11.65L62.79 11.65L62.79 11.65Q63.34 11.65 63.73 11.49L63.73 11.49L63.73 11.49Q64.13 11.34 64.54 10.99L64.54 10.99L65.94 12.45L65.94 12.45Q64.83 13.68 62.71 13.68L62.71 13.68L62.71 13.68Q61.38 13.68 60.37 13.17L60.37 13.17L60.37 13.17Q59.36 12.67 58.81 11.77L58.81 11.77L58.81 11.77Q58.25 10.88 58.25 9.74L58.25 9.74L58.25 9.74Q58.25 8.62 58.79 7.73L58.79 7.73L58.79 7.73Q59.33 6.85 60.28 6.34L60.28 6.34L60.28 6.34Q61.24 5.84 62.43 5.84L62.43 5.84L62.43 5.84Q63.56 5.84 64.48 6.31L64.48 6.31L64.48 6.31Q65.41 6.78 65.95 7.66L65.95 7.66L65.95 7.66Q66.49 8.55 66.49 9.77L66.49 9.77ZM62.44 7.73L62.44 7.73Q61.82 7.73 61.41 8.08L61.41 8.08L61.41 8.08Q61.00 8.43 60.89 9.03L60.89 9.03L63.99 9.03L63.99 9.03Q63.88 8.43 63.47 8.08L63.47 8.08L63.47 8.08Q63.06 7.73 62.44 7.73L62.44 7.73ZM70.25 6.87L70.25 6.87Q70.66 6.36 71.31 6.10L71.31 6.10L71.31 6.10Q71.96 5.84 72.80 5.84L72.80 5.84L72.80 8.23L72.80 8.23Q72.44 8.19 72.20 8.19L72.20 8.19L72.20 8.19Q71.34 8.19 70.86 8.65L70.86 8.65L70.86 8.65Q70.38 9.11 70.38 10.07L70.38 10.07L70.38 13.55L67.72 13.55L67.72 5.96L70.25 5.96L70.25 6.87Z"></path></g><defs data-v-fde0c5aa=""><!----></defs><g data-v-fde0c5aa="" id="5e062c0e-e823-4d30-8b62-466b15580cac" stroke="none" fill="#ffffff" transform="matrix(0.6887933690144065,0,0,0.6887933690144065,115.56033154927968,70.46161284251306)"><path d="M60.208 14.443c-.826-.222-1.689-.108-2.432.32s-1.271 1.12-1.494 1.947a3.211 3.211 0 0 0 2.267 3.926 3.189 3.189 0 0 0 2.433-.32 3.182 3.182 0 0 0 1.493-1.946 3.21 3.21 0 0 0-2.267-3.927z"></path><path d="M80.652 0H19.348C8.662 0 0 8.662 0 19.348v61.306C0 91.338 8.662 100 19.348 100h61.305C91.338 100 100 91.338 100 80.653V19.348C100 8.662 91.338 0 80.652 0zm-50.55 89.343a8.716 8.716 0 0 1-6.225-10.429l16.83 4.51a8.717 8.717 0 0 1-10.605 5.919zM73 82.909a10.138 10.138 0 0 1-.912 2.236c-.409.717-.89 1.415-1.637 2.042L14.967 72.32c-.333-.916-.401-1.762-.398-2.587.011-.823.132-1.618.329-2.393.399-1.546 1.111-3.01 2.061-4.409.47-.7 1.013-1.382 1.742-2.014.709-.637 1.601-1.225 2.568-1.792.477-.286 1.002-.559 1.5-.838l1.503-.838c1.004-.558 1.918-1.14 2.667-1.766 1.541-1.241 2.221-2.713 3.025-4.15a29.823 29.823 0 0 0 1.891-4.455c1.029-3.032 1.532-6.204 2.352-9.292.415-1.542.911-3.063 1.572-4.54a26.533 26.533 0 0 1 2.43-4.31c.485-.697.998-1.387 1.561-2.062a10.89 10.89 0 0 1 2.191-1.894c.873-.592 1.896-1.146 3.033-1.668.28-.131.582-.257.873-.386l.918-.374c.602-.252 1.253-.491 1.895-.732.201-.076 1.544-.496 3.486-.668a8.04 8.04 0 0 1-.592-5.704 8.03 8.03 0 0 1 3.764-4.905 8.026 8.026 0 0 1 6.129-.807c4.304 1.153 6.865 5.591 5.713 9.894a8.016 8.016 0 0 1-3.406 4.675c1.604 1.111 2.594 2.127 2.727 2.29.436.53.88 1.062 1.275 1.582l.609.783c.186.257.385.517.562.771.724 1.021 1.333 2.011 1.793 2.961.473.954.779 1.862.952 2.735.148.867.248 1.721.319 2.566.136 1.69.12 3.34-.052 4.947-.165 1.61-.495 3.175-.908 4.718-.833 3.083-1.983 6.083-2.608 9.223a29.77 29.77 0 0 0-.59 4.803c-.023 1.647-.169 3.263.544 5.107.337.917.837 1.878 1.428 2.863l.883 1.477c.292.492.611.99.881 1.476.553.976 1.032 1.932 1.328 2.837.315.911.445 1.773.502 2.615.124 1.689.009 3.311-.419 4.85z"></path></g><defs data-v-fde0c5aa=""><!----></defs><g data-v-fde0c5aa="" id="2f17f587-2fc2-4880-9468-e6d9b7326597" fill="#ffffff" transform="matrix(2.23880581326537,0,0,2.23880581326537,49.97014944168561,203.59062744012664)"><path d="M7.83 3.22L7.83 2.21L1.13 2.21L1.13 11.48L2.18 11.48L2.18 7.46L7.21 7.46L7.21 6.44L2.18 6.44L2.18 3.22ZM18.90 4.37C16.76 4.37 15.43 5.98 15.43 7.98C15.43 9.98 16.76 11.59 18.90 11.59C21.04 11.59 22.37 9.98 22.37 7.98C22.37 5.98 21.04 4.37 18.90 4.37ZM18.90 10.64C17.35 10.64 16.48 9.42 16.48 7.98C16.48 6.54 17.35 5.32 18.90 5.32C20.45 5.32 21.32 6.54 21.32 7.98C21.32 9.42 20.45 10.64 18.90 10.64ZM34.38 4.37C32.65 4.37 31.95 5.73 31.81 6.20L31.81 4.48L30.76 4.48L30.76 11.48L31.81 11.48L31.81 8.40C31.81 6.86 32.76 5.42 34.33 5.42L34.45 5.42L34.45 4.37ZM56.59 7.81L60.47 2.21L59.19 2.21L56.06 6.72L52.92 2.21L51.65 2.21L55.54 7.81L55.54 11.48L56.59 11.48ZM70.27 4.37C68.12 4.37 66.79 5.98 66.79 7.98C66.79 9.98 68.12 11.59 70.27 11.59C72.41 11.59 73.74 9.98 73.74 7.98C73.74 5.98 72.41 4.37 70.27 4.37ZM70.27 10.64C68.71 10.64 67.84 9.42 67.84 7.98C67.84 6.54 68.71 5.32 70.27 5.32C71.82 5.32 72.69 6.54 72.69 7.98C72.69 9.42 71.82 10.64 70.27 10.64ZM88.23 11.48L88.23 4.48L87.18 4.48L87.18 8.51C87.18 9.77 86.23 10.64 85.06 10.64C83.92 10.64 83.10 9.80 83.10 8.53L83.10 4.48L82.05 4.48L82.05 8.55C82.05 10.54 83.41 11.59 84.85 11.59C85.99 11.59 86.67 11.06 87.18 10.39L87.18 11.48Z"></path></g></svg>