<svg xmlns="http://www.w3.org/2000/svg" viewBox="0 0 32 32"><defs><style>.cls-1{fill:none;stroke:#000;stroke-linejoin:round;stroke-width:2px;}</style></defs><title>35-Notification</title><g id="_35-Notification" data-name="35-Notification"><path class="cls-1" d="M27,23a2,2,0,0,1,2,2,2,2,0,0,1-2,2H5a2,2,0,0,1-2-2,2,2,0,0,1,2-2Z"/><path class="cls-1" d="M12,27a4,4,0,0,0,8,0"/><path class="cls-1" d="M5,23c0-7,2-7,2-13a9,9,0,0,1,18,0c0,6,2,6,2,13"/><path class="cls-1" d="M21,10a5,5,0,0,0-5-5"/><line class="cls-1" x1="21" y1="12" x2="21" y2="14"/><path class="cls-1" d="M24,1s5,2,5,9"/><path class="cls-1" d="M8,1S3,3,3,10"/></g></svg>